<?xml version="1.0" encoding="utf-8"?>
<!-- Generator: Adobe Illustrator 18.0.0, SVG Export Plug-In . SVG Version: 6.00 Build 0)  -->
<!DOCTYPE svg PUBLIC "-//W3C//DTD SVG 1.1//EN" "http://www.w3.org/Graphics/SVG/1.1/DTD/svg11.dtd">
<svg version="1.1" id="Icon_Set" xmlns="http://www.w3.org/2000/svg" xmlns:xlink="http://www.w3.org/1999/xlink" x="0px" y="0px"
	 viewBox="0 0 256 256" style="enable-background:new 0 0 256 256;" xml:space="preserve">
<style type="text/css">
	.st0{fill:#4C4372;}
	.st1{fill:#F0C48A;}
	.st2{fill:#FD919E;}
	.st3{fill:#D3E6F8;}
	.st4{fill:#A4CFF2;}
	.st5{fill:#FFFFFF;}
	.st6{fill:#7BABF1;}
	.st7{fill:#E8677D;}
</style>
<g>
	<g>
		<circle class="st1" cx="128" cy="128" r="103.5"/>
	</g>
	<g>
		<path class="st2" d="M202.385,90.062c-0.949-27.669-23.676-49.805-51.576-49.806v17.286c-1.32-0.913-2.918-1.45-4.644-1.45
			c-4.517,0-8.179,3.662-8.179,8.178c0,4.517,3.662,8.178,8.179,8.178c1.726,0,3.323-0.538,4.644-1.45v19.064h19.881
			c-1.404,1.468-2.271,3.454-2.271,5.646c0,4.516,3.661,8.178,8.178,8.178s8.178-3.662,8.178-8.178c0-2.192-0.867-4.177-2.27-5.646
			H202.385z"/>
	</g>
	<g>
		<path class="st7" d="M150.809,40.256v9.463c0,0,39.961,2.594,40.965,40.342h10.611C201.436,62.392,178.709,40.256,150.809,40.256z
			"/>
	</g>
	<g>
		<path class="st3" d="M136.922,101.464c1.403,1.468,2.27,3.454,2.27,5.645c0,4.517-3.661,8.178-8.178,8.178
			c-4.517,0-8.178-3.662-8.178-8.178c0-2.191,0.867-4.177,2.271-5.645h-19.881V82.4c-1.319,0.913-2.918,1.45-4.644,1.45
			c-4.517,0-8.178-3.662-8.178-8.178c0-4.516,3.661-8.178,8.178-8.178c1.726,0,3.324,0.538,4.644,1.45V51.658
			c-0.245,0-0.49-0.002-0.736,0.001c-28.143,0.392-50.963,23.625-50.875,51.772c0.054,17.214,8.537,32.442,21.537,41.779
			c4.646,3.337,7.32,8.776,7.32,14.496v10.709h45.507v-10.708c0-5.716,2.667-11.156,7.31-14.49
			c13.048-9.366,21.548-24.665,21.548-41.952c0-0.603-0.015-1.203-0.035-1.801H136.922z"/>
	</g>
	<g>
		<path class="st4" d="M127.979,159.706c0-5.716,2.667-11.156,7.31-14.49c13.048-9.366,21.548-24.665,21.548-41.952
			c0-0.603-0.015-1.203-0.035-1.802h-19.881c1.224,1.28,2.039,2.954,2.227,4.814c7.216,20.984-21.082,34.725-21.082,34.725v29.413
			h9.912V159.706z"/>
	</g>
	<g>
		<path class="st5" d="M130.358,186.781H80.094c-4.52,0-8.183-3.664-8.183-8.183l0,0c0-4.519,3.663-8.183,8.183-8.183h50.265
			c4.52,0,8.184,3.664,8.184,8.183l0,0C138.542,183.118,134.878,186.781,130.358,186.781z"/>
	</g>
	<g>
		<path class="st5" d="M105.227,215.744L105.227,215.744c-12.566,0-22.754-10.187-22.754-22.753v-6.209h45.507v6.209
			C127.979,205.557,117.793,215.744,105.227,215.744z"/>
	</g>
	<g>
		<path class="st3" d="M117.418,186.781v6.209c0,10.748-7.454,19.749-17.473,22.131c1.695,0.403,3.462,0.622,5.281,0.622l0,0
			c12.566,0,22.753-10.187,22.753-22.753v-6.209H117.418z"/>
	</g>
	<g>
		<path class="st3" d="M130.358,170.415h-18.296c4.52,0,8.184,3.664,8.184,8.183l0,0c0,4.52-3.664,8.183-8.184,8.183h18.296
			c4.52,0,8.184-3.664,8.184-8.183l0,0C138.542,174.079,134.878,170.415,130.358,170.415z"/>
	</g>
	<g>
		<path class="st0" d="M105.227,218.744c-14.201,0-25.754-11.553-25.754-25.753v-6.209c0-1.657,1.343-3,3-3h45.507
			c1.657,0,3,1.343,3,3v6.209C130.979,207.191,119.427,218.744,105.227,218.744z M85.473,189.781v3.209
			c0,10.892,8.861,19.753,19.754,19.753c10.892,0,19.753-8.861,19.753-19.753v-3.209H85.473z"/>
	</g>
	<g>
		<path class="st0" d="M130.358,189.781H80.094c-6.166,0-11.183-5.017-11.183-11.183s5.017-11.183,11.183-11.183h50.265
			c6.167,0,11.184,5.017,11.184,11.183S136.525,189.781,130.358,189.781z M80.094,173.415c-2.857,0-5.183,2.325-5.183,5.183
			s2.325,5.183,5.183,5.183h50.265c2.858,0,5.184-2.325,5.184-5.183s-2.325-5.183-5.184-5.183H80.094z"/>
	</g>
	<g>
		<g>
			<path class="st0" d="M99.6,144.002h-7.215c-5.632,0-10.214-4.582-10.214-10.214s4.582-10.215,10.214-10.215
				c5.633,0,10.215,4.583,10.215,10.215v7.214C102.6,142.659,101.257,144.002,99.6,144.002z M92.385,129.573
				c-2.323,0-4.214,1.891-4.214,4.215c0,2.324,1.891,4.214,4.214,4.214H96.6v-4.214C96.6,131.464,94.709,129.573,92.385,129.573z"/>
		</g>
		<g>
			<path class="st0" d="M118.067,144.002h-7.214c-1.657,0-3-1.343-3-3v-7.214c0-5.632,4.582-10.215,10.214-10.215
				c5.633,0,10.215,4.583,10.215,10.215S123.7,144.002,118.067,144.002z M113.854,138.002h4.214c2.324,0,4.215-1.891,4.215-4.214
				c0-2.324-1.891-4.215-4.215-4.215c-2.323,0-4.214,1.891-4.214,4.215V138.002z"/>
		</g>
	</g>
	<g>
		<path class="st0" d="M110.854,173.415c-1.657,0-3-1.343-3-3v-26.413H102.6v26.413c0,1.657-1.343,3-3,3s-3-1.343-3-3v-29.413
			c0-1.657,1.343-3,3-3h11.254c1.657,0,3,1.343,3,3v29.413C113.854,172.072,112.511,173.415,110.854,173.415z"/>
	</g>
	<g>
		<path class="st0" d="M127.979,173.415H82.473c-1.657,0-3-1.343-3-3v-10.709c0-4.821-2.27-9.33-6.07-12.06
			c-14.214-10.208-22.732-26.734-22.787-44.207c-0.093-29.791,24.057-54.366,53.833-54.78l0.346-0.002l0.433,0.001
			c1.657,0,3,1.343,3,3v17.286c0,1.116-0.619,2.139-1.607,2.657c-0.987,0.518-2.181,0.445-3.1-0.19
			c-0.867-0.6-1.883-0.917-2.937-0.917c-2.855,0-5.178,2.323-5.178,5.178c0,2.855,2.322,5.178,5.178,5.178
			c1.054,0,2.069-0.317,2.937-0.917c0.919-0.635,2.112-0.708,3.1-0.19c0.988,0.518,1.607,1.542,1.607,2.657v16.064h16.881
			c1.201,0,2.286,0.716,2.759,1.821c0.472,1.104,0.239,2.384-0.591,3.252c-0.928,0.97-1.438,2.239-1.438,3.572
			c0,2.855,2.322,5.178,5.178,5.178s5.178-2.323,5.178-5.178c0-1.333-0.511-2.602-1.438-3.572c-0.83-0.868-1.063-2.148-0.591-3.252
			c0.473-1.104,1.558-1.821,2.759-1.821h19.881c1.617,0,2.942,1.281,2.998,2.897c0.021,0.632,0.037,1.267,0.037,1.904
			c0,17.548-8.522,34.142-22.799,44.389c-3.794,2.724-6.06,7.23-6.06,12.053v10.708
			C130.979,172.072,129.637,173.415,127.979,173.415z M85.473,167.415h39.507v-7.708c0-6.751,3.2-13.079,8.562-16.927
			c12.384-8.889,19.904-23.142,20.282-38.316h-11.947c0.209,0.857,0.316,1.744,0.316,2.645c0,6.164-5.015,11.178-11.178,11.178
			s-11.178-5.015-11.178-11.178c0-0.901,0.107-1.788,0.316-2.645h-14.927c-1.657,0-3-1.343-3-3V86.729
			c-0.541,0.08-1.09,0.121-1.644,0.121c-6.163,0-11.178-5.015-11.178-11.178s5.015-11.178,11.178-11.178
			c0.554,0,1.103,0.041,1.644,0.121v-9.869c-25.434,1.563-45.691,22.931-45.611,48.676c0.049,15.552,7.633,30.263,20.287,39.352
			c5.366,3.854,8.57,10.184,8.57,16.933V167.415z"/>
	</g>
	<g>
		<path class="st0" d="M176.597,106.885c-6.163,0-11.178-5.014-11.178-11.178c0-0.901,0.107-1.788,0.316-2.646h-14.927
			c-1.657,0-3-1.343-3-3V75.327c-0.541,0.08-1.09,0.121-1.644,0.121c-6.164,0-11.179-5.015-11.179-11.178
			s5.015-11.178,11.179-11.178c0.554,0,1.103,0.041,1.644,0.121V40.256c0-0.796,0.316-1.559,0.879-2.121
			c0.563-0.563,1.325-0.879,2.121-0.879l0,0c29.589,0,53.561,23.15,54.574,52.703c0.028,0.813-0.275,1.603-0.841,2.188
			s-1.344,0.916-2.157,0.916h-14.927c0.209,0.857,0.316,1.745,0.316,2.646C187.774,101.871,182.76,106.885,176.597,106.885z
			 M153.809,87.062h16.881c1.201,0,2.287,0.717,2.759,1.821s0.239,2.384-0.591,3.252c-0.928,0.97-1.438,2.238-1.438,3.572
			c0,2.855,2.322,5.178,5.178,5.178s5.178-2.323,5.178-5.178c0-1.333-0.511-2.602-1.439-3.573c-0.83-0.868-1.062-2.147-0.59-3.252
			c0.473-1.104,1.558-1.821,2.759-1.821h16.68c-2.305-23.815-21.464-42.282-45.375-43.716v14.196c0,1.115-0.619,2.139-1.606,2.657
			c-0.99,0.518-2.183,0.445-3.1-0.189c-0.868-0.601-1.885-0.918-2.938-0.918c-2.855,0-5.179,2.323-5.179,5.178
			c0,2.855,2.323,5.178,5.179,5.178c1.053,0,2.069-0.317,2.938-0.918c0.918-0.635,2.111-0.707,3.1-0.189
			c0.987,0.518,1.606,1.542,1.606,2.657V87.062z"/>
	</g>
</g>
</svg>
