<svg xmlns="http://www.w3.org/2000/svg" viewBox="0 0 48 48"><defs><style>.cls-1{fill:#201602;}</style></defs><title>Asset 48ldpi</title><g id="Layer_2" data-name="Layer 2"><g id="layer_1-2" data-name="layer 1"><path class="cls-1" d="M12,34c-2.76,0-5-2.69-5-6a4.68,4.68,0,0,1,5-5,4.68,4.68,0,0,1,5,5C17,31.31,14.76,34,12,34Zm0-9a2.72,2.72,0,0,0-3,3c0,2.21,1.35,4,3,4s3-1.79,3-4A2.72,2.72,0,0,0,12,25Z"/><path class="cls-1" d="M4,48H2V37.58a5,5,0,0,1,4.45-5l5.44-.6.22,2-5.44.61a3,3,0,0,0-2.67,3Z"/><rect class="cls-1" x="6" y="38" width="2" height="10"/><path class="cls-1" d="M22,48H20V37.58a3,3,0,0,0-2.67-3L11.89,34l.22-2,5.44.6a5,5,0,0,1,4.45,5Z"/><rect class="cls-1" x="16" y="38" width="2" height="10"/><path class="cls-1" d="M36,39c-2.76,0-5-2.69-5-6a4.68,4.68,0,0,1,5-5,4.68,4.68,0,0,1,5,5C41,36.31,38.76,39,36,39Zm0-9a2.72,2.72,0,0,0-3,3c0,2.21,1.35,4,3,4s3-1.79,3-4A2.72,2.72,0,0,0,36,30Z"/><path class="cls-1" d="M28,48H26V42.58a5,5,0,0,1,4.45-5l5.44-.6.22,2-5.44.61a3,3,0,0,0-2.67,3Z"/><rect class="cls-1" x="30" y="43" width="2" height="5"/><path class="cls-1" d="M46,48H44V42.58a3,3,0,0,0-2.67-3L35.89,39l.22-2,5.44.6a5,5,0,0,1,4.45,5Z"/><rect class="cls-1" x="40" y="43" width="2" height="5"/><path class="cls-1" d="M1,25a.84.84,0,0,1-.38-.08A1,1,0,0,1,0,24V1A1,1,0,0,1,1,0H29a1,1,0,0,1,1,1V4H28V2H2V21.59l6.29-6.3A1,1,0,0,1,9,15h8v2H9.41l-7.7,7.71A1,1,0,0,1,1,25Z"/><path class="cls-1" d="M47,30a1,1,0,0,1-.71-.29L38.59,22H19a1,1,0,0,1-1-1V6a1,1,0,0,1,1-1H47a1,1,0,0,1,1,1V29a1,1,0,0,1-.62.92A.84.84,0,0,1,47,30ZM20,20H39a1,1,0,0,1,.71.29L46,26.59V7H20Z"/><rect class="cls-1" x="6" y="10" width="11" height="2"/><rect class="cls-1" x="13" y="5" width="4" height="2"/><rect class="cls-1" x="6" y="5" width="5" height="2"/><rect class="cls-1" x="33" y="15" width="6" height="2"/><rect class="cls-1" x="24" y="15" width="7" height="2"/><rect class="cls-1" x="36" y="10" width="6" height="2"/><rect class="cls-1" x="24" y="10" width="10" height="2"/></g></g></svg>