<svg version="1.1" id="Layer_1" xmlns="http://www.w3.org/2000/svg" xmlns:xlink="http://www.w3.org/1999/xlink" x="0px" y="0px"
	 width="100%" viewBox="0 0 1070 1070" enable-background="new 0 0 1070 1070" xml:space="preserve">
<path fill="#FEFEFE" opacity="1.000000" stroke="none" 
	d="
M1071.000000,490.000000 
	C1071.000000,520.354248 1071.000000,550.708435 1070.622192,581.228271 
	C1069.842651,581.904968 1069.146973,582.381653 1069.082275,582.932373 
	C1067.679565,594.898010 1066.605225,606.908447 1064.917358,618.832336 
	C1063.631958,627.912048 1061.585083,636.883911 1059.427612,645.959717 
	C1056.363892,646.015686 1053.749512,646.015686 1050.508667,646.015686 
	C1050.508667,643.495605 1050.523804,641.549377 1050.506348,639.603394 
	C1050.382568,625.779602 1050.488037,611.948181 1050.038818,598.134827 
	C1049.752686,589.337097 1044.929810,583.134399 1036.890381,579.678406 
	C1026.135620,575.055054 1015.742493,576.098145 1005.964600,582.462830 
	C1003.222473,584.247742 1000.787170,586.504089 998.229309,588.529724 
	C984.216125,574.196350 975.869751,573.527405 951.972961,584.882812 
	C951.677307,582.581299 951.394226,580.378235 951.112549,578.185669 
	C941.078491,578.185669 931.303711,578.185669 921.071960,578.185669 
	C921.160278,579.987427 921.234802,581.507080 921.323242,583.309509 
	C923.367249,583.309509 924.854614,583.303162 926.341858,583.310608 
	C932.800598,583.343079 932.803528,583.344543 932.804199,589.787109 
	C932.805908,606.614990 932.812561,623.442871 932.793335,640.270752 
	C932.791321,642.044739 932.630920,643.818542 932.513245,646.219360 
	C928.465393,646.219360 924.908997,646.219360 921.317749,646.219360 
	C921.317749,648.323608 921.317749,649.770752 921.317749,651.508667 
	C935.289368,651.508667 949.022827,651.508667 963.144714,651.508667 
	C963.058533,649.624939 962.986572,648.051697 962.894836,646.044800 
	C960.710632,646.044800 958.879822,645.843811 957.109192,646.084656 
	C952.812927,646.669067 951.337158,645.205627 951.432495,640.653687 
	C951.732666,626.331299 951.489624,611.998169 951.608704,597.670471 
	C951.624146,595.808289 951.979004,593.467224 953.117310,592.179260 
	C958.101562,586.539307 964.439514,583.544006 972.127930,583.943665 
	C976.938232,584.193726 979.869873,586.930786 980.915344,591.418396 
	C981.588074,594.305908 981.772705,597.357239 981.793823,600.337830 
	C981.884766,613.166382 981.834534,625.995972 981.835571,638.825134 
	C981.835754,641.093140 981.835571,643.361145 981.835571,646.186890 
	C977.536682,646.186890 973.957520,646.186890 970.008728,646.186890 
	C970.152710,648.342773 970.257202,649.907349 970.367737,651.562744 
	C984.395996,651.562744 997.997437,651.562744 1011.715576,651.562744 
	C1011.715576,649.650757 1011.715576,647.982910 1011.715576,645.804443 
	C1007.847107,645.804443 1004.429749,645.804443 1001.102234,645.804443 
	C1000.866455,644.820374 1000.656616,644.343445 1000.651123,643.864136 
	C1000.469849,628.210876 1000.276001,612.557373 1000.207520,596.903442 
	C1000.202332,595.710693 1000.854797,594.311768 1001.628052,593.352295 
	C1006.354004,587.488159 1012.344788,583.946411 1020.075928,583.931396 
	C1026.300415,583.919373 1030.124512,587.098877 1031.074585,593.214355 
	C1031.482056,595.837463 1031.707886,598.514404 1031.723022,601.168579 
	C1031.791016,613.164246 1031.753906,625.160645 1031.754517,637.156738 
	C1031.754761,639.933960 1031.754639,642.711182 1031.754639,646.160767 
	C1027.208252,646.160767 1023.320984,646.160767 1019.067505,646.160767 
	C1019.249695,648.429321 1019.374817,649.987000 1019.538879,652.029907 
	C1032.971558,652.029907 1045.944092,652.029907 1058.824219,652.415894 
	C1058.479370,654.211792 1058.307861,655.641724 1057.962891,657.028625 
	C1049.241821,692.094116 1038.227661,726.426270 1022.860779,759.151489 
	C1009.513977,787.574890 994.250916,814.940369 976.177063,840.782837 
	C958.438599,866.145813 938.787659,889.802979 917.368591,912.046753 
	C911.294861,918.354309 904.827820,924.305298 898.292480,930.141235 
	C888.275146,939.086426 878.469360,948.349915 867.812988,956.481384 
	C844.877869,973.982117 821.161926,990.322205 795.717957,1004.158325 
	C769.423950,1018.456665 742.555908,1031.437744 714.170654,1040.841431 
	C694.249512,1047.441162 673.875916,1052.738037 653.559387,1058.063965 
	C630.919739,1063.999023 607.812500,1067.365479 584.464539,1069.078857 
	C583.600708,1069.142334 582.819641,1070.334106 582.000000,1071.000000 
	C551.645752,1071.000000 521.291565,1071.000000 490.771729,1070.622314 
	C487.262543,1069.827271 483.906952,1069.488281 480.577454,1068.978638 
	C467.756409,1067.016479 454.874908,1065.357666 442.145599,1062.911133 
	C426.814178,1059.964111 411.512268,1056.735596 396.380096,1052.907593 
	C367.573608,1045.620361 339.706421,1035.410034 312.837341,1022.837830 
	C284.394989,1009.529541 257.026886,994.254272 231.189835,976.169373 
	C206.106827,958.612305 182.676590,939.194885 160.635178,918.043091 
	C153.956543,911.634094 147.655045,904.807373 141.479340,897.904907 
	C132.634781,888.019348 123.536018,878.293091 115.485298,867.779358 
	C97.941032,844.867310 81.540871,821.176086 67.838882,795.654968 
	C55.367264,772.425537 43.580452,748.937927 35.247154,723.943848 
	C45.600140,729.574280 55.608570,735.223511 65.570930,740.952881 
	C128.832672,777.335083 192.083298,813.736633 255.345703,850.117676 
	C256.627380,850.854736 258.007355,851.421082 259.341461,852.067078 
	C259.529388,851.773376 259.717316,851.479675 259.905243,851.185974 
	C221.565643,784.557312 183.226059,717.928650 144.750977,651.064514 
	C142.403259,652.351257 140.794128,653.191833 139.223938,654.099731 
	C103.456863,674.781738 67.694023,695.471130 31.592255,715.966980 
	C29.897028,711.242859 28.539944,706.710938 27.519642,702.086121 
	C64.175575,681.065063 100.494720,660.136841 137.173935,639.001160 
	C98.483330,571.750793 60.194492,505.198730 21.905657,438.646667 
	C21.592932,438.780518 21.280205,438.914368 20.967480,439.048218 
	C20.967480,519.689880 20.967480,600.331604 20.592632,680.845947 
	C17.999695,671.507874 15.699841,662.316040 13.579741,653.082825 
	C8.423976,630.628967 4.615455,607.961914 2.922921,584.959290 
	C2.847277,583.931274 1.666185,582.984558 0.999998,582.000000 
	C1.000000,551.645752 1.000000,521.291565 1.377785,490.771759 
	C2.169599,489.594788 2.852683,488.609741 2.954670,487.567780 
	C3.703779,479.914307 3.870245,472.173584 5.101656,464.603729 
	C7.799638,448.018494 10.328220,431.355743 14.167509,415.016388 
	C22.433363,379.838257 33.771858,345.577576 49.139698,312.847443 
	C62.485519,284.423767 77.747856,257.057434 95.824493,231.216965 
	C113.757568,205.581726 133.626144,181.675385 155.335327,159.243088 
	C161.193848,153.189407 167.413727,147.464661 173.706177,141.856461 
	C183.732117,132.920746 193.540619,123.664169 204.185211,115.515335 
	C227.095627,97.976570 250.840408,81.680046 276.282745,67.841728 
	C302.575500,53.540878 329.444733,40.562584 357.829895,31.158604 
	C377.750763,24.558830 398.124298,19.261908 418.440613,13.936014 
	C441.080292,8.001058 464.187561,4.634719 487.535492,2.921071 
	C488.399353,2.857666 489.180359,1.665915 490.000000,1.000000 
	C520.354248,1.000000 550.708435,1.000000 581.228271,1.377805 
	C581.906128,2.157391 582.386536,2.857029 582.935547,2.915767 
	C589.925232,3.663558 596.944031,4.165164 603.917175,5.035665 
	C613.747986,6.262912 623.657715,7.216524 633.333801,9.241886 
	C648.438171,12.403457 663.399780,16.266762 678.377563,20.009802 
	C706.622253,27.068310 733.730408,37.402069 760.059875,49.653381 
	C791.949585,64.491913 822.292603,82.007851 850.749573,102.854355 
	C870.821289,117.558044 889.993408,133.297806 907.797791,150.570007 
	C921.400696,163.766312 933.904480,178.115234 946.590759,192.226898 
	C951.549988,197.743271 955.671875,204.012329 960.077820,210.309082 
	C959.153137,212.942352 958.325867,215.205093 957.478271,217.523254 
	C937.292236,206.408585 917.199707,206.021027 897.579895,215.893250 
	C871.277039,229.128174 861.628723,267.500519 876.834534,294.998596 
	C888.900757,316.819244 910.578064,324.347687 934.212524,321.528351 
	C946.225891,320.095306 956.499084,315.079346 964.173645,305.374603 
	C966.661255,302.228973 966.621887,299.884491 963.002441,298.455933 
	C959.665771,301.552887 956.886902,304.719513 953.558777,307.126801 
	C929.725464,324.366180 902.560364,314.824615 894.826355,286.596619 
	C891.837219,275.686920 891.484619,264.617981 892.727112,253.411102 
	C893.692139,244.706985 895.453918,236.273727 900.378174,228.881271 
	C907.863586,217.643982 919.033569,214.020035 931.708679,215.512192 
	C944.504822,217.018616 954.389709,223.522720 958.427246,236.373886 
	C959.827942,240.832062 962.010864,240.710815 966.006104,239.705231 
	C966.006104,232.462509 966.006104,225.170410 966.333496,218.003632 
	C981.996277,237.886032 995.244202,259.031525 1006.861206,281.107239 
	C1015.442078,297.413300 1023.092896,314.242798 1030.478882,331.136047 
	C1042.705933,359.101959 1051.521851,388.178619 1058.143311,417.998108 
	C1063.246582,440.980835 1067.330322,464.056366 1069.078857,487.539673 
	C1069.143066,488.402679 1070.334106,489.181793 1071.000000,490.000000 
M330.939301,523.546509 
	C312.597168,491.885620 294.255035,460.224731 275.392639,427.665710 
	C234.827927,497.740356 194.777893,566.925903 154.602036,636.328857 
	C235.591339,636.328857 315.592560,636.328857 396.206116,636.328857 
	C374.341278,598.539551 352.827515,561.356934 330.939301,523.546509 
M286.213470,831.738159 
	C321.012665,771.774963 355.811859,711.811768 390.904388,651.343140 
	C313.654327,651.343140 237.526657,651.343140 160.661255,651.343140 
	C198.982819,717.820923 236.947937,783.680359 275.410675,850.403076 
	C279.230438,843.816467 282.546600,838.098328 286.213470,831.738159 
M215.952148,503.474792 
	C230.782166,477.869110 245.612183,452.263428 260.851562,425.950989 
	C183.845978,425.950989 107.854057,425.950989 30.731924,425.950989 
	C69.083282,492.651917 107.009476,558.613403 145.406509,625.393738 
	C169.217789,584.249512 192.406265,544.181458 215.952148,503.474792 
M339.202911,510.267365 
	C361.102020,548.349792 383.001099,586.432190 405.406250,625.394653 
	C443.856781,558.523315 481.799377,492.535339 520.093201,425.936493 
	C443.244537,425.936493 367.553009,425.936493 290.728760,425.936493 
	C307.053101,454.331635 322.948578,481.980774 339.202911,510.267365 
M508.362152,709.140564 
	C474.722351,689.854370 441.082550,670.568176 406.860229,650.947998 
	C368.029724,718.017700 329.456055,784.643799 290.882385,851.269897 
	C291.189301,851.587036 291.496216,851.904236 291.803131,852.221375 
	C369.034515,807.679260 446.265900,763.137146 524.077209,718.260498 
	C518.725281,715.154907 513.859802,712.331543 508.362152,709.140564 
M141.561478,350.047943 
	C106.614098,370.336823 71.666718,390.625702 35.569649,411.582062 
	C113.986412,411.582062 190.729233,411.582062 267.373322,411.582062 
	C267.373322,366.747070 267.373322,322.281738 267.373322,276.998657 
	C225.148666,301.529205 183.679810,325.620697 141.561478,350.047943 
M509.619263,472.127106 
	C477.607147,527.789246 445.595062,583.451355 413.326080,639.560120 
	C452.301514,662.048767 490.769073,684.244385 529.645020,706.675598 
	C529.645020,616.577087 529.645020,527.684021 529.645020,437.375092 
	C522.605408,449.590912 516.295227,460.541077 509.619263,472.127106 
M438.942657,367.564301 
	C387.212036,337.698853 335.481384,307.833435 283.319733,277.719208 
	C283.319733,322.889801 283.319733,367.232147 283.319733,411.659088 
	C360.273438,411.659088 436.807953,411.659088 513.342468,411.659088 
	C513.466187,411.351593 513.589905,411.044128 513.713623,410.736633 
	C489.005402,396.460999 464.297180,382.185364 438.942657,367.564301 
M727.268372,281.499969 
	C727.268372,292.609619 727.268372,303.719238 727.268372,315.516205 
	C722.625793,315.516205 718.586853,315.516205 714.178406,315.516205 
	C714.321533,317.785065 714.419128,319.332611 714.508423,320.748230 
	C730.641418,320.748230 746.231628,320.748230 762.134216,320.748230 
	C761.969604,318.814178 761.836060,317.245209 761.649841,315.056458 
	C756.546631,315.056458 751.831909,315.056458 747.172974,315.056458 
	C747.172974,281.821533 747.172974,249.248535 747.172974,216.001175 
	C751.857422,216.001175 756.241333,216.001175 760.380066,216.001175 
	C761.608459,211.543320 760.132202,210.268997 756.291870,210.357086 
	C747.467102,210.559525 738.626221,210.644775 729.808777,210.320496 
	C725.807800,210.173340 723.965271,211.507401 722.511597,215.219910 
	C713.286072,238.780609 703.806641,262.241943 694.397217,285.730499 
	C693.880005,287.021576 693.239929,288.263367 692.340210,290.215607 
	C691.348755,287.980499 690.641296,286.507263 690.032227,284.994415 
	C680.581604,261.517212 671.085449,238.057938 661.772827,214.526077 
	C660.534607,211.397369 658.979309,210.243713 655.565247,210.334091 
	C646.076111,210.585281 636.573242,210.554199 627.081482,210.359711 
	C622.919312,210.274429 621.595520,211.719559 623.158325,216.325256 
	C627.219910,216.325256 631.428894,216.325256 635.663086,216.325256 
	C635.663086,249.610138 635.663086,282.190460 635.663086,315.332916 
	C632.737854,315.332916 630.116455,315.309906 627.495544,315.337799 
	C622.415039,315.391846 622.277283,315.596741 623.608337,320.697998 
	C634.182068,320.697998 644.737305,320.697998 655.642639,320.697998 
	C655.446777,318.706329 655.293030,317.142517 655.087280,315.050079 
	C650.730652,315.050079 646.825073,315.050079 643.028442,315.050079 
	C643.028442,283.862488 643.028442,253.256485 643.028442,222.650467 
	C644.444702,223.969193 645.175720,225.409134 645.798950,226.894257 
	C658.233459,256.525055 670.640564,286.167419 683.126770,315.776398 
	C683.716309,317.174377 684.985901,318.285522 685.938782,319.530243 
	C687.020813,318.249146 688.525940,317.138519 689.121094,315.661285 
	C697.520142,294.814880 705.791504,273.917053 714.102722,253.035248 
	C718.135254,242.903656 722.186279,232.779419 726.228943,222.651855 
	C726.575745,222.717377 726.922485,222.782913 727.269287,222.848434 
	C727.269287,242.065598 727.269287,261.282776 727.268372,281.499969 
M649.155518,809.500000 
	C649.155518,819.438599 649.155518,829.377136 649.155518,839.908447 
	C645.104980,839.908447 641.708862,839.908447 637.951599,839.908447 
	C638.086975,842.090454 638.183105,843.639771 638.277466,845.160278 
	C652.674316,845.160278 666.612244,845.160278 680.935974,845.160278 
	C680.821533,843.272339 680.726868,841.710754 680.604553,839.693726 
	C676.564575,839.693726 672.968750,839.693726 669.227478,839.693726 
	C669.227478,824.001709 669.227478,808.798340 669.227478,793.596985 
	C687.006165,793.596985 704.403137,793.596985 722.267639,793.596985 
	C722.267639,805.817627 722.267700,817.625610 722.267700,829.433594 
	C722.267700,839.289490 722.267334,839.284302 712.617737,839.831665 
	C711.983826,839.867615 711.359619,840.073792 710.519043,840.243652 
	C710.519043,841.927368 710.519043,843.459778 710.519043,845.124817 
	C724.783020,845.124817 738.695740,845.124817 753.050110,845.124817 
	C752.921204,843.216125 752.817139,841.675537 752.682800,839.686157 
	C748.914551,839.686157 745.647705,839.686157 742.249023,839.686157 
	C742.249023,806.491028 742.249023,773.784241 742.249023,740.692383 
	C745.905457,740.692383 749.189514,740.692383 752.781128,740.692383 
	C752.781128,738.753357 752.781128,737.200134 752.781128,735.341675 
	C738.626282,735.341675 724.720520,735.341675 710.623596,735.341675 
	C710.623596,737.234558 710.623596,738.895081 710.623596,741.018250 
	C714.678284,741.018250 718.277283,741.018250 721.869141,741.018250 
	C721.869141,756.699951 721.869141,771.909180 721.869141,787.102173 
	C704.016907,787.102173 686.625427,787.102173 669.241333,787.102173 
	C669.241333,771.488403 669.241333,756.267395 669.241333,740.670044 
	C673.249390,740.670044 676.866150,740.670044 680.686401,740.670044 
	C680.686401,738.714539 680.686401,737.144104 680.686401,735.402100 
	C666.368103,735.402100 652.318481,735.402100 637.937744,735.402100 
	C638.074829,737.364746 638.184692,738.937622 638.330383,741.023132 
	C642.105774,741.023132 645.512085,741.023132 649.156311,741.023132 
	C649.156311,763.878418 649.156311,786.189209 649.155518,809.500000 
M466.781555,321.082916 
	C480.233551,321.082916 493.685547,321.082916 507.088226,321.082916 
	C508.471283,316.825897 507.455750,314.735779 503.173340,315.368927 
	C498.867249,316.005554 496.199615,314.154755 493.549500,310.806580 
	C481.350647,295.394348 468.858704,280.214233 456.481018,264.943451 
	C454.000916,261.883636 451.560669,258.791504 448.689392,255.197754 
	C459.283722,244.768372 469.757935,234.991501 479.568390,224.588669 
	C484.993317,218.836182 490.366119,214.414459 498.795685,216.102737 
	C499.215820,216.186890 499.717438,215.864151 501.307526,215.407059 
	C500.344635,213.611343 499.547028,210.707123 498.655212,210.677902 
	C488.742065,210.353134 478.814331,210.473251 468.506531,210.473251 
	C468.607910,212.787048 468.676361,214.348877 468.767700,216.433624 
	C472.120453,216.433624 474.988312,216.433624 477.856140,216.433624 
	C477.500122,216.276062 477.144104,216.118515 476.788086,215.960953 
	C460.785736,231.953659 444.783356,247.946365 429.410400,263.310028 
	C429.410400,248.602341 429.410400,232.587158 429.410400,215.967621 
	C434.386658,215.967621 438.951263,215.967621 443.299286,215.967621 
	C444.495209,211.637573 443.157318,210.297119 439.254059,210.361877 
	C427.762024,210.552551 416.264801,210.429779 404.769592,210.429703 
	C401.997314,210.429688 399.225037,210.429703 396.355133,210.429703 
	C396.355133,212.729935 396.355133,214.269836 396.355133,216.229797 
	C400.834045,216.229797 404.940948,216.229797 409.307648,216.229797 
	C409.307648,249.356781 409.307648,282.057037 409.307648,315.474640 
	C404.716522,315.474640 400.514435,315.474640 395.915955,315.474640 
	C396.075256,317.761627 396.182587,319.302643 396.279266,320.690399 
	C412.387421,320.690399 427.954193,320.690399 443.378876,320.690399 
	C444.446716,316.650543 443.271942,314.975769 439.285370,315.288513 
	C436.034393,315.543610 432.747467,315.340424 428.984467,315.340424 
	C428.984467,303.679565 429.390900,292.703491 428.828339,281.777313 
	C428.503265,275.464142 431.397369,271.971313 436.394684,268.740570 
	C448.350098,284.055664 460.176117,299.205017 471.931305,314.263672 
	C471.419098,314.840637 471.326233,315.042419 471.221405,315.048889 
	C469.403076,315.160858 467.465088,314.896423 465.801331,315.454224 
	C464.483978,315.895874 463.502686,317.339905 462.372192,318.338867 
	C463.536224,319.253448 464.700226,320.168030 466.781555,321.082916 
M825.568237,209.872116 
	C812.932617,207.979919 800.962158,209.541275 790.227722,216.968674 
	C782.403503,222.382446 778.609070,229.785599 778.692139,239.480591 
	C778.814453,253.768829 786.541809,262.817291 798.427063,268.876251 
	C805.376587,272.419037 812.967407,274.704010 819.915649,278.248993 
	C825.768005,281.234802 831.983459,284.364960 836.485535,288.954346 
	C844.664673,297.292084 841.990356,309.588989 831.691650,313.698151 
	C817.215210,319.474182 794.952209,315.964661 787.013000,295.807770 
	C785.119019,290.999115 782.666321,290.298035 778.271362,291.582642 
	C778.271362,301.104767 778.271362,310.641479 778.271362,320.279236 
	C780.374695,320.279236 782.112000,320.279236 783.581909,320.279236 
	C784.698975,317.527222 785.665955,315.144867 786.840515,312.251190 
	C797.859131,320.085022 809.658081,322.698151 822.309937,322.002533 
	C844.243652,320.796631 858.924500,302.680939 854.112732,282.785675 
	C852.076843,274.367859 846.469482,268.768555 839.218262,264.906403 
	C830.558167,260.293854 821.455139,256.515228 812.774841,251.937500 
	C807.659485,249.239761 802.461365,246.271606 798.239807,242.400635 
	C790.829712,235.606018 791.534851,225.300781 799.037476,219.881073 
	C809.837158,212.079681 829.092712,213.954681 837.519592,224.176880 
	C840.458313,227.741684 841.944641,232.503723 844.175049,236.877289 
	C845.707458,236.877289 847.640503,236.877289 849.619385,236.877289 
	C849.619385,227.899567 849.619385,219.189865 849.619385,210.454865 
	C847.409607,210.454865 845.613953,210.454865 843.874451,210.454865 
	C843.082520,212.245010 842.374451,213.845673 841.840881,215.051834 
	C836.455933,213.285507 831.439575,211.640091 825.568237,209.872116 
M577.895508,316.199371 
	C577.818420,317.739166 577.741272,319.278992 577.670227,320.697205 
	C591.116577,320.697205 603.862305,320.697205 616.607971,320.697205 
	C616.967529,320.227203 617.327026,319.757202 617.686584,319.287201 
	C616.422241,317.971313 615.063049,315.461945 613.910461,315.553467 
	C609.712830,315.886841 608.595520,313.471161 607.301331,310.311188 
	C594.230957,278.396790 581.016846,246.541260 567.949585,214.625580 
	C566.799072,211.815582 565.489807,210.460175 562.191528,210.435135 
	C558.661438,210.408356 557.301819,211.901779 556.140320,214.939575 
	C543.883545,246.996307 531.476990,278.995758 519.176086,311.035706 
	C518.148987,313.711090 517.212646,315.829376 513.656494,315.385254 
	C508.854858,314.785614 509.069336,317.577179 510.111664,320.770081 
	C519.494751,320.770081 528.600403,320.770081 538.083069,320.770081 
	C537.961670,318.869324 537.862122,317.311523 537.727112,315.198303 
	C533.576904,315.198303 529.849243,315.198303 525.388550,315.198303 
	C528.440674,306.983643 531.142273,299.498169 534.071716,292.102997 
	C534.432251,291.192932 536.004517,290.208588 537.024719,290.198273 
	C549.854370,290.068634 562.685974,290.083435 575.516357,290.167328 
	C576.503784,290.173798 578.068359,290.727661 578.380981,291.451752 
	C581.659241,299.045868 584.736816,306.726654 588.099854,314.945404 
	C584.336243,315.215637 581.411499,315.425629 577.895508,316.199371 
M665.775146,427.033051 
	C677.273438,427.033081 688.772034,426.987976 700.269470,427.087921 
	C701.774719,427.100952 704.218262,427.431946 704.626709,428.337524 
	C708.073425,435.979309 711.147583,443.789093 714.513062,451.985199 
	C710.488770,452.177551 707.382385,452.326050 704.183228,452.478943 
	C704.183228,454.429260 704.183228,456.011230 704.183228,457.726349 
	C717.203674,457.726349 729.961426,457.726349 742.811157,457.726349 
	C742.811157,455.885712 742.811157,454.317841 742.811157,452.035339 
	C735.713562,454.356934 734.600952,449.298492 732.715332,444.738861 
	C719.929382,413.820770 706.986389,382.967590 694.229431,352.037628 
	C692.996826,349.049164 691.672119,347.660004 688.168396,347.622864 
	C684.539612,347.584381 683.315247,349.227203 682.182007,352.167908 
	C670.396240,382.752441 658.501160,413.294922 646.652771,443.855408 
	C644.755920,448.747986 643.889221,454.796936 635.852905,451.983063 
	C635.852905,454.411560 635.852905,456.103119 635.852905,457.764038 
	C645.360840,457.764038 654.479675,457.764038 663.802795,457.764038 
	C663.802795,455.948029 663.802795,454.364655 663.802795,452.145996 
	C659.722717,452.145996 655.846069,452.145996 651.243591,452.145996 
	C654.070129,444.519775 656.744202,437.740906 659.065002,430.843170 
	C660.090027,427.796509 661.699036,426.450317 665.775146,427.033051 
M723.496216,541.990723 
	C695.733215,541.990723 667.970215,541.990723 640.233276,541.990723 
	C640.233276,553.838440 640.233276,565.067017 640.233276,576.177063 
	C644.232300,577.438416 645.927063,576.158569 645.846558,572.301331 
	C645.808594,570.481384 646.013428,568.632019 646.323120,566.833008 
	C648.335999,555.142273 652.488281,549.685120 661.596008,548.491455 
	C667.423096,547.727783 673.431580,548.348328 679.704285,548.348328 
	C679.704285,580.071716 679.736084,611.526062 679.563049,642.979309 
	C679.557312,644.006165 677.547485,645.766174 676.329285,645.901489 
	C672.769592,646.296936 669.137634,646.042114 665.118469,646.042114 
	C665.269775,648.357422 665.371460,649.913879 665.494324,651.794128 
	C680.742920,651.794128 695.548584,651.849426 710.351807,651.681519 
	C711.447815,651.669128 712.525574,650.050903 713.611755,649.179199 
	C712.513672,648.137512 711.501465,646.332703 710.301392,646.197632 
	C706.741333,645.796875 703.107239,646.054016 699.421448,646.054016 
	C699.421448,612.995239 699.421448,580.627136 699.421448,547.997253 
	C702.445923,547.997253 705.098022,547.997070 707.750183,547.997253 
	C725.614502,547.998657 731.522278,553.512451 732.897339,571.468506 
	C732.922791,571.800659 732.959595,572.134705 732.948853,572.466492 
	C732.799927,577.060730 735.197693,577.251099 738.632080,575.935974 
	C738.632080,564.642395 738.632080,553.551941 738.632080,542.565186 
	C738.070801,542.328308 737.778687,542.099915 737.483826,542.096375 
	C733.154175,542.043579 728.824280,542.020691 723.496216,541.990723 
M837.395020,633.114441 
	C838.761536,643.959534 845.953613,649.341370 855.672302,651.779480 
	C866.885925,654.592651 877.047546,652.044250 885.540161,644.008545 
	C894.288025,655.306213 908.615662,655.701355 915.300598,644.222473 
	C913.439880,643.903503 911.654968,642.993103 910.463196,643.494080 
	C904.058105,646.185730 903.065918,645.707642 903.030396,638.808899 
	C902.965210,626.142517 903.072388,613.475037 902.959534,600.809326 
	C902.879395,591.820923 899.590210,584.145386 891.156860,580.328552 
	C877.460632,574.129822 863.632019,574.612183 850.361572,581.994202 
	C846.141235,584.341980 843.102600,587.873718 842.562500,592.980469 
	C842.067566,597.660461 844.552307,601.532043 848.975220,603.082458 
	C853.460022,604.654480 857.962219,603.317932 860.361633,599.427612 
	C862.833435,595.419800 862.425598,591.498657 859.361206,587.898254 
	C858.653381,587.066589 857.885620,586.285767 856.977661,585.299255 
	C862.400757,582.130737 867.957581,581.369324 873.657410,582.244263 
	C878.416077,582.974792 882.598389,585.519531 883.176819,590.528381 
	C884.132507,598.803955 884.158386,607.186890 884.632935,616.658386 
	C876.091187,611.424866 868.139221,610.289978 859.841919,611.010864 
	C845.763245,612.234070 837.642151,619.931641 837.395020,633.114441 
M807.931946,642.643494 
	C798.925293,646.561829 789.760681,648.188965 781.549194,641.398987 
	C772.452820,633.877258 771.731628,623.221436 771.843994,611.774902 
	C789.364319,611.774902 806.399048,611.774902 823.356079,611.774902 
	C824.776855,598.561035 818.865295,585.604309 808.539978,580.850708 
	C794.023438,574.167480 779.548828,575.071655 766.406311,584.361877 
	C753.429016,593.535400 749.890259,607.003174 752.471069,621.963257 
	C756.875916,647.496582 786.150818,660.671936 810.231567,648.105713 
	C814.497131,645.879822 818.100525,642.385132 821.840271,639.602295 
	C819.620667,635.214294 817.719421,635.316589 815.120361,637.719666 
	C813.190369,639.504150 810.787842,640.777588 807.931946,642.643494 
z"/>
<path fill="#000000" opacity="1.000000" stroke="none" 
	d="
M1071.000000,489.531342 
	C1070.334106,489.181793 1069.143066,488.402679 1069.078857,487.539673 
	C1067.330322,464.056366 1063.246582,440.980835 1058.143311,417.998108 
	C1051.521851,388.178619 1042.705933,359.101959 1030.478882,331.136047 
	C1023.092896,314.242798 1015.442078,297.413300 1006.861206,281.107239 
	C995.244202,259.031525 981.996277,237.886032 966.364868,217.652145 
	C964.104187,214.763062 962.139709,212.350815 960.175171,209.938553 
	C955.671875,204.012329 951.549988,197.743271 946.590759,192.226898 
	C933.904480,178.115234 921.400696,163.766312 907.797791,150.570007 
	C889.993408,133.297806 870.821289,117.558044 850.749573,102.854355 
	C822.292603,82.007851 791.949585,64.491913 760.059875,49.653381 
	C733.730408,37.402069 706.622253,27.068310 678.377563,20.009802 
	C663.399780,16.266762 648.438171,12.403457 633.333801,9.241886 
	C623.657715,7.216524 613.747986,6.262912 603.917175,5.035665 
	C596.944031,4.165164 589.925232,3.663558 582.935547,2.915767 
	C582.386536,2.857029 581.906128,2.157391 581.696899,1.377805 
	C744.927063,1.000000 907.854187,1.000000 1071.000000,1.000000 
	C1071.000000,163.687500 1071.000000,326.375092 1071.000000,489.531342 
z"/>
<path fill="#000000" opacity="1.000000" stroke="none" 
	d="
M582.468628,1071.000000 
	C582.819641,1070.334106 583.600708,1069.142334 584.464539,1069.078857 
	C607.812500,1067.365479 630.919739,1063.999023 653.559387,1058.063965 
	C673.875916,1052.738037 694.249512,1047.441162 714.170654,1040.841431 
	C742.555908,1031.437744 769.423950,1018.456665 795.717957,1004.158325 
	C821.161926,990.322205 844.877869,973.982117 867.812988,956.481384 
	C878.469360,948.349915 888.275146,939.086426 898.292480,930.141235 
	C904.827820,924.305298 911.294861,918.354309 917.368591,912.046753 
	C938.787659,889.802979 958.438599,866.145813 976.177063,840.782837 
	C994.250916,814.940369 1009.513977,787.574890 1022.860779,759.151489 
	C1038.227661,726.426270 1049.241821,692.094116 1057.962891,657.028625 
	C1058.307861,655.641724 1058.479370,654.211792 1058.891846,652.025879 
	C1059.327026,649.467834 1059.602051,647.685791 1059.877197,645.903748 
	C1061.585083,636.883911 1063.631958,627.912048 1064.917358,618.832336 
	C1066.605225,606.908447 1067.679565,594.898010 1069.082275,582.932373 
	C1069.146973,582.381653 1069.842651,581.904968 1070.622192,581.696899 
	C1071.000000,744.927063 1071.000000,907.854187 1071.000000,1071.000000 
	C908.312500,1071.000000 745.624939,1071.000000 582.468628,1071.000000 
z"/>
<path fill="#000000" opacity="1.000000" stroke="none" 
	d="
M489.531342,1.000000 
	C489.180359,1.665915 488.399353,2.857666 487.535492,2.921071 
	C464.187561,4.634719 441.080292,8.001058 418.440613,13.936014 
	C398.124298,19.261908 377.750763,24.558830 357.829895,31.158604 
	C329.444733,40.562584 302.575500,53.540878 276.282745,67.841728 
	C250.840408,81.680046 227.095627,97.976570 204.185211,115.515335 
	C193.540619,123.664169 183.732117,132.920746 173.706177,141.856461 
	C167.413727,147.464661 161.193848,153.189407 155.335327,159.243088 
	C133.626144,181.675385 113.757568,205.581726 95.824493,231.216965 
	C77.747856,257.057434 62.485519,284.423767 49.139698,312.847443 
	C33.771858,345.577576 22.433363,379.838257 14.167509,415.016388 
	C10.328220,431.355743 7.799638,448.018494 5.101656,464.603729 
	C3.870245,472.173584 3.703779,479.914307 2.954670,487.567780 
	C2.852683,488.609741 2.169599,489.594788 1.377785,490.303101 
	C1.000000,327.072906 1.000000,164.145828 1.000000,1.000000 
	C163.687500,1.000000 326.375092,1.000000 489.531342,1.000000 
z"/>
<path fill="#000000" opacity="1.000000" stroke="none" 
	d="
M0.999998,582.468628 
	C1.666185,582.984558 2.847277,583.931274 2.922921,584.959290 
	C4.615455,607.961914 8.423976,630.628967 13.579741,653.082825 
	C15.699841,662.316040 17.999695,671.507874 20.610039,681.249268 
	C23.062475,688.579651 25.122660,695.379272 27.182850,702.178955 
	C28.539944,706.710938 29.897028,711.242859 31.620552,716.330933 
	C32.951744,719.257935 33.916500,721.628906 34.881260,723.999817 
	C43.580452,748.937927 55.367264,772.425537 67.838882,795.654968 
	C81.540871,821.176086 97.941032,844.867310 115.485298,867.779358 
	C123.536018,878.293091 132.634781,888.019348 141.479340,897.904907 
	C147.655045,904.807373 153.956543,911.634094 160.635178,918.043091 
	C182.676590,939.194885 206.106827,958.612305 231.189835,976.169373 
	C257.026886,994.254272 284.394989,1009.529541 312.837341,1022.837830 
	C339.706421,1035.410034 367.573608,1045.620361 396.380096,1052.907593 
	C411.512268,1056.735596 426.814178,1059.964111 442.145599,1062.911133 
	C454.874908,1065.357666 467.756409,1067.016479 480.577454,1068.978638 
	C483.906952,1069.488281 487.262543,1069.827271 490.303101,1070.622314 
	C327.072906,1071.000000 164.145828,1071.000000 1.000000,1071.000000 
	C1.000000,908.312500 1.000000,745.624939 0.999998,582.468628 
z"/>
<path fill="#447778" opacity="1.000000" stroke="none" 
	d="
M331.126526,523.860474 
	C352.827515,561.356934 374.341278,598.539551 396.206116,636.328857 
	C315.592560,636.328857 235.591339,636.328857 154.602036,636.328857 
	C194.777893,566.925903 234.827927,497.740356 275.392639,427.665710 
	C294.255035,460.224731 312.597168,491.885620 331.126526,523.860474 
z"/>
<path fill="#447778" opacity="1.000000" stroke="none" 
	d="
M286.038116,832.059143 
	C282.546600,838.098328 279.230438,843.816467 275.410675,850.403076 
	C236.947937,783.680359 198.982819,717.820923 160.661255,651.343140 
	C237.526657,651.343140 313.654327,651.343140 390.904388,651.343140 
	C355.811859,711.811768 321.012665,771.774963 286.038116,832.059143 
z"/>
<path fill="#447778" opacity="1.000000" stroke="none" 
	d="
M215.773438,503.794128 
	C192.406265,544.181458 169.217789,584.249512 145.406509,625.393738 
	C107.009476,558.613403 69.083282,492.651917 30.731924,425.950989 
	C107.854057,425.950989 183.845978,425.950989 260.851562,425.950989 
	C245.612183,452.263428 230.782166,477.869110 215.773438,503.794128 
z"/>
<path fill="#447778" opacity="1.000000" stroke="none" 
	d="
M339.023468,509.948639 
	C322.948578,481.980774 307.053101,454.331635 290.728760,425.936493 
	C367.553009,425.936493 443.244537,425.936493 520.093201,425.936493 
	C481.799377,492.535339 443.856781,558.523315 405.406250,625.394653 
	C383.001099,586.432190 361.102020,548.349792 339.023468,509.948639 
z"/>
<path fill="#457778" opacity="1.000000" stroke="none" 
	d="
M35.247147,723.943848 
	C33.916500,721.628906 32.951744,719.257935 31.958691,716.523071 
	C67.694023,695.471130 103.456863,674.781738 139.223938,654.099731 
	C140.794128,653.191833 142.403259,652.351257 144.750977,651.064514 
	C183.226059,717.928650 221.565643,784.557312 259.905243,851.185974 
	C259.717316,851.479675 259.529388,851.773376 259.341461,852.067078 
	C258.007355,851.421082 256.627380,850.854736 255.345703,850.117676 
	C192.083298,813.736633 128.832672,777.335083 65.570930,740.952881 
	C55.608570,735.223511 45.600140,729.574280 35.247147,723.943848 
z"/>
<path fill="#457778" opacity="1.000000" stroke="none" 
	d="
M508.678223,709.324402 
	C513.859802,712.331543 518.725281,715.154907 524.077209,718.260498 
	C446.265900,763.137146 369.034515,807.679260 291.803131,852.221375 
	C291.496216,851.904236 291.189301,851.587036 290.882385,851.269897 
	C329.456055,784.643799 368.029724,718.017700 406.860229,650.947998 
	C441.082550,670.568176 474.722351,689.854370 508.678223,709.324402 
z"/>
<path fill="#457778" opacity="1.000000" stroke="none" 
	d="
M141.886215,349.880066 
	C183.679810,325.620697 225.148666,301.529205 267.373322,276.998657 
	C267.373322,322.281738 267.373322,366.747070 267.373322,411.582062 
	C190.729233,411.582062 113.986412,411.582062 35.569649,411.582062 
	C71.666718,390.625702 106.614098,370.336823 141.886215,349.880066 
z"/>
<path fill="#457778" opacity="1.000000" stroke="none" 
	d="
M509.802124,471.809174 
	C516.295227,460.541077 522.605408,449.590912 529.645020,437.375092 
	C529.645020,527.684021 529.645020,616.577087 529.645020,706.675598 
	C490.769073,684.244385 452.301514,662.048767 413.326080,639.560120 
	C445.595062,583.451355 477.607147,527.789246 509.802124,471.809174 
z"/>
<path fill="#457778" opacity="1.000000" stroke="none" 
	d="
M439.265808,367.737000 
	C464.297180,382.185364 489.005402,396.460999 513.713623,410.736633 
	C513.589905,411.044128 513.466187,411.351593 513.342468,411.659088 
	C436.807953,411.659088 360.273438,411.659088 283.319733,411.659088 
	C283.319733,367.232147 283.319733,322.889801 283.319733,277.719208 
	C335.481384,307.833435 387.212036,337.698853 439.265808,367.737000 
z"/>
<path fill="#447778" opacity="1.000000" stroke="none" 
	d="
M27.519634,702.086121 
	C25.122660,695.379272 23.062475,688.579651 20.984886,681.376587 
	C20.967480,600.331604 20.967480,519.689880 20.967480,439.048218 
	C21.280205,438.914368 21.592932,438.780518 21.905657,438.646667 
	C60.194492,505.198730 98.483330,571.750793 137.173935,639.001160 
	C100.494720,660.136841 64.175575,681.065063 27.519634,702.086121 
z"/>
<path fill="#4A7B7C" opacity="1.000000" stroke="none" 
	d="
M727.268799,280.999939 
	C727.269287,261.282776 727.269287,242.065598 727.269287,222.848434 
	C726.922485,222.782913 726.575745,222.717377 726.228943,222.651855 
	C722.186279,232.779419 718.135254,242.903656 714.102722,253.035248 
	C705.791504,273.917053 697.520142,294.814880 689.121094,315.661285 
	C688.525940,317.138519 687.020813,318.249146 685.938782,319.530243 
	C684.985901,318.285522 683.716309,317.174377 683.126770,315.776398 
	C670.640564,286.167419 658.233459,256.525055 645.798950,226.894257 
	C645.175720,225.409134 644.444702,223.969193 643.028442,222.650467 
	C643.028442,253.256485 643.028442,283.862488 643.028442,315.050079 
	C646.825073,315.050079 650.730652,315.050079 655.087280,315.050079 
	C655.293030,317.142517 655.446777,318.706329 655.642639,320.697998 
	C644.737305,320.697998 634.182068,320.697998 623.608337,320.697998 
	C622.277283,315.596741 622.415039,315.391846 627.495544,315.337799 
	C630.116455,315.309906 632.737854,315.332916 635.663086,315.332916 
	C635.663086,282.190460 635.663086,249.610138 635.663086,216.325256 
	C631.428894,216.325256 627.219910,216.325256 623.158325,216.325256 
	C621.595520,211.719559 622.919312,210.274429 627.081482,210.359711 
	C636.573242,210.554199 646.076111,210.585281 655.565247,210.334091 
	C658.979309,210.243713 660.534607,211.397369 661.772827,214.526077 
	C671.085449,238.057938 680.581604,261.517212 690.032227,284.994415 
	C690.641296,286.507263 691.348755,287.980499 692.340210,290.215607 
	C693.239929,288.263367 693.880005,287.021576 694.397217,285.730499 
	C703.806641,262.241943 713.286072,238.780609 722.511597,215.219910 
	C723.965271,211.507401 725.807800,210.173340 729.808777,210.320496 
	C738.626221,210.644775 747.467102,210.559525 756.291870,210.357086 
	C760.132202,210.268997 761.608459,211.543320 760.380066,216.001175 
	C756.241333,216.001175 751.857422,216.001175 747.172974,216.001175 
	C747.172974,249.248535 747.172974,281.821533 747.172974,315.056458 
	C751.831909,315.056458 756.546631,315.056458 761.649841,315.056458 
	C761.836060,317.245209 761.969604,318.814178 762.134216,320.748230 
	C746.231628,320.748230 730.641418,320.748230 714.508423,320.748230 
	C714.419128,319.332611 714.321533,317.785065 714.178406,315.516205 
	C718.586853,315.516205 722.625793,315.516205 727.268372,315.516205 
	C727.268372,303.719238 727.268372,292.609619 727.268799,280.999939 
z"/>
<path fill="#497B7C" opacity="1.000000" stroke="none" 
	d="
M649.155884,809.000000 
	C649.156311,786.189209 649.156311,763.878418 649.156311,741.023132 
	C645.512085,741.023132 642.105774,741.023132 638.330383,741.023132 
	C638.184692,738.937622 638.074829,737.364746 637.937744,735.402100 
	C652.318481,735.402100 666.368103,735.402100 680.686401,735.402100 
	C680.686401,737.144104 680.686401,738.714539 680.686401,740.670044 
	C676.866150,740.670044 673.249390,740.670044 669.241333,740.670044 
	C669.241333,756.267395 669.241333,771.488403 669.241333,787.102173 
	C686.625427,787.102173 704.016907,787.102173 721.869141,787.102173 
	C721.869141,771.909180 721.869141,756.699951 721.869141,741.018250 
	C718.277283,741.018250 714.678284,741.018250 710.623596,741.018250 
	C710.623596,738.895081 710.623596,737.234558 710.623596,735.341675 
	C724.720520,735.341675 738.626282,735.341675 752.781128,735.341675 
	C752.781128,737.200134 752.781128,738.753357 752.781128,740.692383 
	C749.189514,740.692383 745.905457,740.692383 742.249023,740.692383 
	C742.249023,773.784241 742.249023,806.491028 742.249023,839.686157 
	C745.647705,839.686157 748.914551,839.686157 752.682800,839.686157 
	C752.817139,841.675537 752.921204,843.216125 753.050110,845.124817 
	C738.695740,845.124817 724.783020,845.124817 710.519043,845.124817 
	C710.519043,843.459778 710.519043,841.927368 710.519043,840.243652 
	C711.359619,840.073792 711.983826,839.867615 712.617737,839.831665 
	C722.267334,839.284302 722.267700,839.289490 722.267700,829.433594 
	C722.267700,817.625610 722.267639,805.817627 722.267639,793.596985 
	C704.403137,793.596985 687.006165,793.596985 669.227478,793.596985 
	C669.227478,808.798340 669.227478,824.001709 669.227478,839.693726 
	C672.968750,839.693726 676.564575,839.693726 680.604553,839.693726 
	C680.726868,841.710754 680.821533,843.272339 680.935974,845.160278 
	C666.612244,845.160278 652.674316,845.160278 638.277466,845.160278 
	C638.183105,843.639771 638.086975,842.090454 637.951599,839.908447 
	C641.708862,839.908447 645.104980,839.908447 649.155518,839.908447 
	C649.155518,829.377136 649.155518,819.438599 649.155884,809.000000 
z"/>
<path fill="#47797A" opacity="1.000000" stroke="none" 
	d="
M1059.427734,645.959717 
	C1059.602051,647.685791 1059.327026,649.467834 1058.984375,651.639893 
	C1045.944092,652.029907 1032.971558,652.029907 1019.538879,652.029907 
	C1019.374817,649.987000 1019.249695,648.429321 1019.067505,646.160767 
	C1023.320984,646.160767 1027.208252,646.160767 1031.754639,646.160767 
	C1031.754639,642.711182 1031.754761,639.933960 1031.754517,637.156738 
	C1031.753906,625.160645 1031.791016,613.164246 1031.723022,601.168579 
	C1031.707886,598.514404 1031.482056,595.837463 1031.074585,593.214355 
	C1030.124512,587.098877 1026.300415,583.919373 1020.075928,583.931396 
	C1012.344788,583.946411 1006.354004,587.488159 1001.628052,593.352295 
	C1000.854797,594.311768 1000.202332,595.710693 1000.207520,596.903442 
	C1000.276001,612.557373 1000.469849,628.210876 1000.651123,643.864136 
	C1000.656616,644.343445 1000.866455,644.820374 1001.102234,645.804443 
	C1004.429749,645.804443 1007.847107,645.804443 1011.715576,645.804443 
	C1011.715576,647.982910 1011.715576,649.650757 1011.715576,651.562744 
	C997.997437,651.562744 984.395996,651.562744 970.367737,651.562744 
	C970.257202,649.907349 970.152710,648.342773 970.008728,646.186890 
	C973.957520,646.186890 977.536682,646.186890 981.835571,646.186890 
	C981.835571,643.361145 981.835754,641.093140 981.835571,638.825134 
	C981.834534,625.995972 981.884766,613.166382 981.793823,600.337830 
	C981.772705,597.357239 981.588074,594.305908 980.915344,591.418396 
	C979.869873,586.930786 976.938232,584.193726 972.127930,583.943665 
	C964.439514,583.544006 958.101562,586.539307 953.117310,592.179260 
	C951.979004,593.467224 951.624146,595.808289 951.608704,597.670471 
	C951.489624,611.998169 951.732666,626.331299 951.432495,640.653687 
	C951.337158,645.205627 952.812927,646.669067 957.109192,646.084656 
	C958.879822,645.843811 960.710632,646.044800 962.894836,646.044800 
	C962.986572,648.051697 963.058533,649.624939 963.144714,651.508667 
	C949.022827,651.508667 935.289368,651.508667 921.317749,651.508667 
	C921.317749,649.770752 921.317749,648.323608 921.317749,646.219360 
	C924.908997,646.219360 928.465393,646.219360 932.513245,646.219360 
	C932.630920,643.818542 932.791321,642.044739 932.793335,640.270752 
	C932.812561,623.442871 932.805908,606.614990 932.804199,589.787109 
	C932.803528,583.344543 932.800598,583.343079 926.341858,583.310608 
	C924.854614,583.303162 923.367249,583.309509 921.323242,583.309509 
	C921.234802,581.507080 921.160278,579.987427 921.071960,578.185669 
	C931.303711,578.185669 941.078491,578.185669 951.112549,578.185669 
	C951.394226,580.378235 951.677307,582.581299 951.972961,584.882812 
	C975.869751,573.527405 984.216125,574.196350 998.229309,588.529724 
	C1000.787170,586.504089 1003.222473,584.247742 1005.964600,582.462830 
	C1015.742493,576.098145 1026.135620,575.055054 1036.890381,579.678406 
	C1044.929810,583.134399 1049.752686,589.337097 1050.038818,598.134827 
	C1050.488037,611.948181 1050.382568,625.779602 1050.506348,639.603394 
	C1050.523804,641.549377 1050.508667,643.495605 1050.508667,646.015686 
	C1053.749512,646.015686 1056.363892,646.015686 1059.427734,645.959717 
z"/>
<path fill="#487A7B" opacity="1.000000" stroke="none" 
	d="
M466.322906,321.082764 
	C464.700226,320.168030 463.536224,319.253448 462.372192,318.338867 
	C463.502686,317.339905 464.483978,315.895874 465.801331,315.454224 
	C467.465088,314.896423 469.403076,315.160858 471.221405,315.048889 
	C471.326233,315.042419 471.419098,314.840637 471.931305,314.263672 
	C460.176117,299.205017 448.350098,284.055664 436.394684,268.740570 
	C431.397369,271.971313 428.503265,275.464142 428.828339,281.777313 
	C429.390900,292.703491 428.984467,303.679565 428.984467,315.340424 
	C432.747467,315.340424 436.034393,315.543610 439.285370,315.288513 
	C443.271942,314.975769 444.446716,316.650543 443.378876,320.690399 
	C427.954193,320.690399 412.387421,320.690399 396.279266,320.690399 
	C396.182587,319.302643 396.075256,317.761627 395.915955,315.474640 
	C400.514435,315.474640 404.716522,315.474640 409.307648,315.474640 
	C409.307648,282.057037 409.307648,249.356781 409.307648,216.229797 
	C404.940948,216.229797 400.834045,216.229797 396.355133,216.229797 
	C396.355133,214.269836 396.355133,212.729935 396.355133,210.429703 
	C399.225037,210.429703 401.997314,210.429688 404.769592,210.429703 
	C416.264801,210.429779 427.762024,210.552551 439.254059,210.361877 
	C443.157318,210.297119 444.495209,211.637573 443.299286,215.967621 
	C438.951263,215.967621 434.386658,215.967621 429.410400,215.967621 
	C429.410400,232.587158 429.410400,248.602341 429.410400,263.310028 
	C444.783356,247.946365 460.785736,231.953659 476.788086,215.960953 
	C477.144104,216.118515 477.500122,216.276062 477.856140,216.433624 
	C474.988312,216.433624 472.120453,216.433624 468.767700,216.433624 
	C468.676361,214.348877 468.607910,212.787048 468.506531,210.473251 
	C478.814331,210.473251 488.742065,210.353134 498.655212,210.677902 
	C499.547028,210.707123 500.344635,213.611343 501.307526,215.407059 
	C499.717438,215.864151 499.215820,216.186890 498.795685,216.102737 
	C490.366119,214.414459 484.993317,218.836182 479.568390,224.588669 
	C469.757935,234.991501 459.283722,244.768372 448.689392,255.197754 
	C451.560669,258.791504 454.000916,261.883636 456.481018,264.943451 
	C468.858704,280.214233 481.350647,295.394348 493.549500,310.806580 
	C496.199615,314.154755 498.867249,316.005554 503.173340,315.368927 
	C507.455750,314.735779 508.471283,316.825897 507.088226,321.082916 
	C493.685547,321.082916 480.233551,321.082916 466.322906,321.082764 
z"/>
<path fill="#487A7B" opacity="1.000000" stroke="none" 
	d="
M825.995728,209.933395 
	C831.439575,211.640091 836.455933,213.285507 841.840881,215.051834 
	C842.374451,213.845673 843.082520,212.245010 843.874451,210.454865 
	C845.613953,210.454865 847.409607,210.454865 849.619385,210.454865 
	C849.619385,219.189865 849.619385,227.899567 849.619385,236.877289 
	C847.640503,236.877289 845.707458,236.877289 844.175049,236.877289 
	C841.944641,232.503723 840.458313,227.741684 837.519592,224.176880 
	C829.092712,213.954681 809.837158,212.079681 799.037476,219.881073 
	C791.534851,225.300781 790.829712,235.606018 798.239807,242.400635 
	C802.461365,246.271606 807.659485,249.239761 812.774841,251.937500 
	C821.455139,256.515228 830.558167,260.293854 839.218262,264.906403 
	C846.469482,268.768555 852.076843,274.367859 854.112732,282.785675 
	C858.924500,302.680939 844.243652,320.796631 822.309937,322.002533 
	C809.658081,322.698151 797.859131,320.085022 786.840515,312.251190 
	C785.665955,315.144867 784.698975,317.527222 783.581909,320.279236 
	C782.112000,320.279236 780.374695,320.279236 778.271362,320.279236 
	C778.271362,310.641479 778.271362,301.104767 778.271362,291.582642 
	C782.666321,290.298035 785.119019,290.999115 787.013000,295.807770 
	C794.952209,315.964661 817.215210,319.474182 831.691650,313.698151 
	C841.990356,309.588989 844.664673,297.292084 836.485535,288.954346 
	C831.983459,284.364960 825.768005,281.234802 819.915649,278.248993 
	C812.967407,274.704010 805.376587,272.419037 798.427063,268.876251 
	C786.541809,262.817291 778.814453,253.768829 778.692139,239.480591 
	C778.609070,229.785599 782.403503,222.382446 790.227722,216.968674 
	C800.962158,209.541275 812.932617,207.979919 825.995728,209.933395 
z"/>
<path fill="#4A7B7C" opacity="1.000000" stroke="none" 
	d="
M578.191101,315.917511 
	C581.411499,315.425629 584.336243,315.215637 588.099854,314.945404 
	C584.736816,306.726654 581.659241,299.045868 578.380981,291.451752 
	C578.068359,290.727661 576.503784,290.173798 575.516357,290.167328 
	C562.685974,290.083435 549.854370,290.068634 537.024719,290.198273 
	C536.004517,290.208588 534.432251,291.192932 534.071716,292.102997 
	C531.142273,299.498169 528.440674,306.983643 525.388550,315.198303 
	C529.849243,315.198303 533.576904,315.198303 537.727112,315.198303 
	C537.862122,317.311523 537.961670,318.869324 538.083069,320.770081 
	C528.600403,320.770081 519.494751,320.770081 510.111664,320.770081 
	C509.069336,317.577179 508.854858,314.785614 513.656494,315.385254 
	C517.212646,315.829376 518.148987,313.711090 519.176086,311.035706 
	C531.476990,278.995758 543.883545,246.996307 556.140320,214.939575 
	C557.301819,211.901779 558.661438,210.408356 562.191528,210.435135 
	C565.489807,210.460175 566.799072,211.815582 567.949585,214.625580 
	C581.016846,246.541260 594.230957,278.396790 607.301331,310.311188 
	C608.595520,313.471161 609.712830,315.886841 613.910461,315.553467 
	C615.063049,315.461945 616.422241,317.971313 617.686584,319.287201 
	C617.327026,319.757202 616.967529,320.227203 616.607971,320.697205 
	C603.862305,320.697205 591.116577,320.697205 577.670227,320.697205 
	C577.741272,319.278992 577.818420,317.739166 578.191101,315.917511 
M569.776245,269.766113 
	C565.175720,258.586456 560.575256,247.406815 555.430542,234.904739 
	C549.008972,252.003784 543.091370,267.760986 537.018982,283.930145 
	C550.249451,283.930145 562.552673,283.930145 575.484863,283.930145 
	C573.514771,279.051270 571.784668,274.766724 569.776245,269.766113 
z"/>
<path fill="#487A7B" opacity="1.000000" stroke="none" 
	d="
M665.313599,427.033081 
	C661.699036,426.450317 660.090027,427.796509 659.065002,430.843170 
	C656.744202,437.740906 654.070129,444.519775 651.243591,452.145996 
	C655.846069,452.145996 659.722717,452.145996 663.802795,452.145996 
	C663.802795,454.364655 663.802795,455.948029 663.802795,457.764038 
	C654.479675,457.764038 645.360840,457.764038 635.852905,457.764038 
	C635.852905,456.103119 635.852905,454.411560 635.852905,451.983063 
	C643.889221,454.796936 644.755920,448.747986 646.652771,443.855408 
	C658.501160,413.294922 670.396240,382.752441 682.182007,352.167908 
	C683.315247,349.227203 684.539612,347.584381 688.168396,347.622864 
	C691.672119,347.660004 692.996826,349.049164 694.229431,352.037628 
	C706.986389,382.967590 719.929382,413.820770 732.715332,444.738861 
	C734.600952,449.298492 735.713562,454.356934 742.811157,452.035339 
	C742.811157,454.317841 742.811157,455.885712 742.811157,457.726349 
	C729.961426,457.726349 717.203674,457.726349 704.183228,457.726349 
	C704.183228,456.011230 704.183228,454.429260 704.183228,452.478943 
	C707.382385,452.326050 710.488770,452.177551 714.513062,451.985199 
	C711.147583,443.789093 708.073425,435.979309 704.626709,428.337524 
	C704.218262,427.431946 701.774719,427.100952 700.269470,427.087921 
	C688.772034,426.987976 677.273438,427.033081 665.313599,427.033081 
M680.057007,375.733093 
	C674.393188,390.731201 668.729370,405.729279 663.003296,420.892273 
	C676.054382,420.892273 688.542725,420.892273 701.783752,420.892273 
	C695.029053,404.521332 688.528931,388.767395 681.744690,372.324768 
	C680.936951,373.860138 680.629517,374.444458 680.057007,375.733093 
z"/>
<path fill="#46797A" opacity="1.000000" stroke="none" 
	d="
M723.995300,541.990723 
	C728.824280,542.020691 733.154175,542.043579 737.483826,542.096375 
	C737.778687,542.099915 738.070801,542.328308 738.632080,542.565186 
	C738.632080,553.551941 738.632080,564.642395 738.632080,575.935974 
	C735.197693,577.251099 732.799927,577.060730 732.948853,572.466492 
	C732.959595,572.134705 732.922791,571.800659 732.897339,571.468506 
	C731.522278,553.512451 725.614502,547.998657 707.750183,547.997253 
	C705.098022,547.997070 702.445923,547.997253 699.421448,547.997253 
	C699.421448,580.627136 699.421448,612.995239 699.421448,646.054016 
	C703.107239,646.054016 706.741333,645.796875 710.301392,646.197632 
	C711.501465,646.332703 712.513672,648.137512 713.611816,649.179199 
	C712.525574,650.050903 711.447815,651.669128 710.351807,651.681519 
	C695.548584,651.849426 680.742920,651.794128 665.494324,651.794128 
	C665.371460,649.913879 665.269775,648.357422 665.118469,646.042114 
	C669.137634,646.042114 672.769592,646.296936 676.329285,645.901489 
	C677.547485,645.766174 679.557312,644.006165 679.563049,642.979309 
	C679.736084,611.526062 679.704285,580.071716 679.704285,548.348328 
	C673.431580,548.348328 667.423096,547.727783 661.596008,548.491455 
	C652.488281,549.685120 648.335999,555.142273 646.323120,566.833008 
	C646.013428,568.632019 645.808594,570.481384 645.846558,572.301331 
	C645.927063,576.158569 644.232300,577.438416 640.233276,576.177063 
	C640.233276,565.067017 640.233276,553.838440 640.233276,541.990723 
	C667.970215,541.990723 695.733215,541.990723 723.995300,541.990723 
z"/>
<path fill="#487A7B" opacity="1.000000" stroke="none" 
	d="
M960.077820,210.309082 
	C962.139709,212.350815 964.104187,214.763062 966.037415,217.526825 
	C966.006104,225.170410 966.006104,232.462509 966.006104,239.705231 
	C962.010864,240.710815 959.827942,240.832062 958.427246,236.373886 
	C954.389709,223.522720 944.504822,217.018616 931.708679,215.512192 
	C919.033569,214.020035 907.863586,217.643982 900.378174,228.881271 
	C895.453918,236.273727 893.692139,244.706985 892.727112,253.411102 
	C891.484619,264.617981 891.837219,275.686920 894.826355,286.596619 
	C902.560364,314.824615 929.725464,324.366180 953.558777,307.126801 
	C956.886902,304.719513 959.665771,301.552887 963.002441,298.455933 
	C966.621887,299.884491 966.661255,302.228973 964.173645,305.374603 
	C956.499084,315.079346 946.225891,320.095306 934.212524,321.528351 
	C910.578064,324.347687 888.900757,316.819244 876.834534,294.998596 
	C861.628723,267.500519 871.277039,229.128174 897.579895,215.893250 
	C917.199707,206.021027 937.292236,206.408585 957.478271,217.523254 
	C958.325867,215.205093 959.153137,212.942352 960.077820,210.309082 
z"/>
<path fill="#4A7B7C" opacity="1.000000" stroke="none" 
	d="
M837.379639,632.696594 
	C837.642151,619.931641 845.763245,612.234070 859.841919,611.010864 
	C868.139221,610.289978 876.091187,611.424866 884.632935,616.658386 
	C884.158386,607.186890 884.132507,598.803955 883.176819,590.528381 
	C882.598389,585.519531 878.416077,582.974792 873.657410,582.244263 
	C867.957581,581.369324 862.400757,582.130737 856.977661,585.299255 
	C857.885620,586.285767 858.653381,587.066589 859.361206,587.898254 
	C862.425598,591.498657 862.833435,595.419800 860.361633,599.427612 
	C857.962219,603.317932 853.460022,604.654480 848.975220,603.082458 
	C844.552307,601.532043 842.067566,597.660461 842.562500,592.980469 
	C843.102600,587.873718 846.141235,584.341980 850.361572,581.994202 
	C863.632019,574.612183 877.460632,574.129822 891.156860,580.328552 
	C899.590210,584.145386 902.879395,591.820923 902.959534,600.809326 
	C903.072388,613.475037 902.965210,626.142517 903.030396,638.808899 
	C903.065918,645.707642 904.058105,646.185730 910.463196,643.494080 
	C911.654968,642.993103 913.439880,643.903503 915.300598,644.222473 
	C908.615662,655.701355 894.288025,655.306213 885.540161,644.008545 
	C877.047546,652.044250 866.885925,654.592651 855.672302,651.779480 
	C845.953613,649.341370 838.761536,643.959534 837.379639,632.696594 
M884.630676,633.989319 
	C884.628601,631.332092 884.832520,628.652405 884.545227,626.026367 
	C884.379822,624.515015 883.788269,622.719788 882.753540,621.690979 
	C878.033447,616.997864 868.774536,615.847473 862.714600,619.045349 
	C856.414734,622.369812 856.348694,628.292175 856.813110,634.216125 
	C857.385681,641.521179 861.601013,645.443726 868.730103,645.724365 
	C875.657471,645.997070 883.467896,640.649780 884.630676,633.989319 
z"/>
<path fill="#4A7B7C" opacity="1.000000" stroke="none" 
	d="
M808.263855,642.461060 
	C810.787842,640.777588 813.190369,639.504150 815.120361,637.719666 
	C817.719421,635.316589 819.620667,635.214294 821.840271,639.602295 
	C818.100525,642.385132 814.497131,645.879822 810.231567,648.105713 
	C786.150818,660.671936 756.875916,647.496582 752.471069,621.963257 
	C749.890259,607.003174 753.429016,593.535400 766.406311,584.361877 
	C779.548828,575.071655 794.023438,574.167480 808.539978,580.850708 
	C818.865295,585.604309 824.776855,598.561035 823.356079,611.774902 
	C806.399048,611.774902 789.364319,611.774902 771.843994,611.774902 
	C771.731628,623.221436 772.452820,633.877258 781.549194,641.398987 
	C789.760681,648.188965 798.925293,646.561829 808.263855,642.461060 
M772.604065,602.120178 
	C773.080933,603.381897 773.534119,605.733398 774.038147,605.744385 
	C783.978271,605.960632 793.924316,605.905396 804.645508,605.905396 
	C804.016907,601.464905 803.723816,597.678894 802.905945,594.009949 
	C801.611389,588.202515 798.390198,583.910522 792.080688,583.090759 
	C785.361816,582.217773 779.732056,584.467590 776.446350,590.528809 
	C774.660278,593.823608 773.934875,597.693298 772.604065,602.120178 
z"/>
<path fill="#FAFBFB" opacity="1.000000" stroke="none" 
	d="
M569.915405,270.124146 
	C571.784668,274.766724 573.514771,279.051270 575.484863,283.930145 
	C562.552673,283.930145 550.249451,283.930145 537.018982,283.930145 
	C543.091370,267.760986 549.008972,252.003784 555.430542,234.904739 
	C560.575256,247.406815 565.175720,258.586456 569.915405,270.124146 
z"/>
<path fill="#FCFDFD" opacity="1.000000" stroke="none" 
	d="
M680.189575,375.380951 
	C680.629517,374.444458 680.936951,373.860138 681.744690,372.324768 
	C688.528931,388.767395 695.029053,404.521332 701.783752,420.892273 
	C688.542725,420.892273 676.054382,420.892273 663.003296,420.892273 
	C668.729370,405.729279 674.393188,390.731201 680.189575,375.380951 
z"/>
<path fill="#F8FAFA" opacity="1.000000" stroke="none" 
	d="
M884.627991,634.415649 
	C883.467896,640.649780 875.657471,645.997070 868.730103,645.724365 
	C861.601013,645.443726 857.385681,641.521179 856.813110,634.216125 
	C856.348694,628.292175 856.414734,622.369812 862.714600,619.045349 
	C868.774536,615.847473 878.033447,616.997864 882.753540,621.690979 
	C883.788269,622.719788 884.379822,624.515015 884.545227,626.026367 
	C884.832520,628.652405 884.628601,631.332092 884.627991,634.415649 
z"/>
<path fill="#FAFBFB" opacity="1.000000" stroke="none" 
	d="
M772.667603,601.711914 
	C773.934875,597.693298 774.660278,593.823608 776.446350,590.528809 
	C779.732056,584.467590 785.361816,582.217773 792.080688,583.090759 
	C798.390198,583.910522 801.611389,588.202515 802.905945,594.009949 
	C803.723816,597.678894 804.016907,601.464905 804.645508,605.905396 
	C793.924316,605.905396 783.978271,605.960632 774.038147,605.744385 
	C773.534119,605.733398 773.080933,603.381897 772.667603,601.711914 
z"/>
</svg>